<svg width="123" height="51" viewBox="0 0 123 51" fill="none" xmlns="http://www.w3.org/2000/svg">
<g clip-path="url(#clip0_4896_27874)">
<path d="M60.5911 22.4821C57.2557 20.2044 56.8079 15.055 59.5905 10.9793C62.3731 6.90364 67.3329 5.44837 70.6683 7.72608C74.0038 10.0038 74.4516 15.1532 71.669 19.2289C69.7774 21.9978 66.8805 23.5581 64.171 23.5581C62.894 23.5581 61.6603 23.2109 60.5911 22.4821ZM56.0928 5.2062C49.9382 11.1369 49.2186 20.3757 54.4868 25.8427C59.755 31.3096 69.0143 30.9327 75.1689 24.9997C81.3236 19.0689 82.0432 9.83016 76.775 4.3632C74.2802 1.77707 70.8945 0.5 67.3649 0.5C63.4377 0.5 59.3346 2.0832 56.0928 5.2062Z" fill="#0047C7"/>
<path d="M117.886 0.792346C116.257 0.792346 114.77 1.71531 114.046 3.17286L107.076 20.0901V8.06183C107.076 5.56937 107.076 1.84553 103.893 1.3018C100.944 0.796915 99.3814 4.12781 98.9381 4.79262C98.5658 5.35234 91.8491 19.8045 91.8491 19.8045V6.22733C91.8491 4.12096 90.8508 0.687256 87.0835 0.687256C85.4364 0.687256 84.7441 0.806053 84.7441 0.806053L84.7624 23.7134C84.7624 25.3057 85.3176 29.6761 89.528 29.6761C91.9657 29.6761 93.9304 28.4013 95.0932 26.2401C95.6347 25.2349 100.745 15.048 100.745 15.048V24.2845C100.745 26.6308 101.84 29.603 105.198 29.603C108.556 29.603 109.829 28.086 110.998 26.1259C112.168 24.1657 122.341 0.796915 122.341 0.796915H117.889L117.886 0.792346Z" fill="#0047C7"/>
<path d="M46.183 23.1127L41.6001 23.0853C40.3299 23.0853 39.7016 22.9756 39.4275 22.6398C39.1534 22.304 39.1579 21.6551 39.4275 20.3484L42.3243 6.65012C42.7036 4.8179 42.4797 3.3672 41.6527 2.35057C40.3893 0.817625 38.2372 0.888446 38.0453 0.888446H36.092L31.7582 21.7168C31.2465 24.1979 31.4886 26.005 32.4938 27.2363C33.8646 28.9223 36.7683 29.3199 39.359 29.3199H50.0233C50.0233 29.3199 52.1183 23.1127 46.1898 23.1127" fill="#0047C7"/>
<path d="M18.6559 7.13443C19.2682 7.04762 19.8896 7.01792 20.5087 7.04533H29.9919L31.2782 0.888428H21.3175C18.6742 0.888428 16.1338 0.961534 14.064 1.90049C11.7177 2.96281 10.2305 5.02806 9.57021 8.23331L4.95996 29.3336H8.77519C12.3597 29.3336 13.0131 26.1809 13.0747 25.9296L14.9367 18.0958H25.4868C26.7776 18.0958 27.8879 17.1797 28.13 15.9117C28.2877 15.0916 28.4864 14.0795 28.7217 12.9464L28.9091 12.0462H16.1703L16.6272 9.91703C16.6547 9.79138 16.7438 9.32761 16.9288 8.66509C17.0339 8.29271 17.2326 7.95459 17.5068 7.68044C17.8335 7.39716 18.231 7.20982 18.6559 7.13671" fill="#0047C7"/>
<path d="M0 50.2098L2.44905 38.7778H9.65001L9.27762 40.521H4.01398L3.38573 43.4749H8.4072L8.0371 45.1541H3.03162L2.32797 48.4324H8.04395L7.66929 50.2075H0V50.2098Z" fill="#0047C7"/>
<path d="M18.6971 50.2098L15.2862 41.3297H15.2542L13.3535 50.2098H11.3682L13.8172 38.7778H16.4011L19.7571 47.3838H19.7891L21.6304 38.7778H23.6157L21.1667 50.2098H18.6971Z" fill="#0047C7"/>
<path d="M32.123 40.5234L30.0464 50.21H28.0611L30.1217 40.5234H26.7314L27.1038 38.7803H35.8537L35.4813 40.5234H32.123Z" fill="#0047C7"/>
<path d="M36.5693 50.2098L39.0184 38.7778H46.2193L45.847 40.521H40.5833L39.9551 43.4749H44.9765L44.6064 45.1541H39.601L38.8973 48.4324H44.6133L44.2386 50.2075H36.5693V50.2098Z" fill="#0047C7"/>
<path d="M56.6525 50.2098H54.409L52.4283 45.3345H50.9114L49.8879 50.2098H47.9346L50.3836 38.7778H53.7739C55.0327 38.7778 55.9945 39.0383 56.6593 39.5614C57.3218 40.0846 57.6371 40.8065 57.6028 41.7341C57.5686 42.6479 57.2693 43.3881 56.7027 43.9547C56.1384 44.5189 55.3937 44.905 54.4707 45.1084L56.6525 50.2098ZM52.7481 43.7034C53.6209 43.7034 54.2971 43.564 54.7814 43.283C55.2657 43.0043 55.5193 42.5565 55.5422 41.942C55.5627 41.3822 55.3777 40.9939 54.9893 40.7791C54.5986 40.5644 54.0709 40.457 53.4038 40.457H51.9668L51.2632 43.7011H52.7481V43.7034Z" fill="#0047C7"/>
<path d="M65.8502 38.7778C67.109 38.7778 68.0617 39.0406 68.7105 39.5683C69.357 40.096 69.6632 40.8339 69.6289 41.7798C69.6038 42.4263 69.469 42.9791 69.2199 43.4429C68.9709 43.9067 68.6282 44.2882 68.1919 44.5898C67.7555 44.8913 67.2392 45.1129 66.6407 45.2523C66.0444 45.3916 65.3887 45.4625 64.6782 45.4625H62.9511L61.9322 50.2098H59.9629L62.4119 38.7778H65.8502ZM64.8062 43.7833C65.2037 43.7833 65.5738 43.7536 65.9142 43.6942C66.2546 43.6348 66.547 43.5366 66.7892 43.3949C67.0313 43.2556 67.2232 43.0728 67.3672 42.8466C67.5111 42.6205 67.5888 42.3349 67.6002 41.9922C67.6116 41.6907 67.5659 41.4416 67.4677 41.2406C67.3672 41.0418 67.2232 40.8865 67.0336 40.7723C66.844 40.6603 66.6155 40.5781 66.3483 40.5301C66.081 40.4821 65.7862 40.457 65.4618 40.457H64.0089L63.2869 43.7833H64.8039H64.8062Z" fill="#0047C7"/>
<path d="M80.4347 50.2098H78.1913L76.2105 45.3345H74.6936L73.6701 50.2098H71.7168L74.1659 38.7778H77.5561C78.8149 38.7778 79.7767 39.0383 80.4415 39.5614C81.1041 40.0846 81.4193 40.8065 81.3851 41.7341C81.3508 42.6479 81.0515 43.3881 80.485 43.9547C79.9207 44.5189 79.1759 44.905 78.2529 45.1084L80.4347 50.2098ZM76.5304 43.7034C77.4031 43.7034 78.0793 43.564 78.5636 43.283C79.048 43.0043 79.3016 42.5565 79.3244 41.942C79.345 41.3822 79.1599 40.9939 78.7715 40.7791C78.3809 40.5644 77.8531 40.457 77.186 40.457H75.7491L75.0454 43.7011H76.5304V43.7034Z" fill="#0047C7"/>
<path d="M83.7295 50.2098L86.1785 38.7778H88.1638L85.7148 50.2098H83.7295Z" fill="#0047C7"/>
<path d="M97.9075 41.1356C97.7042 40.7906 97.4323 40.537 97.0896 40.3771C96.7447 40.2149 96.37 40.135 95.9611 40.135C95.7555 40.135 95.5293 40.1669 95.2803 40.2309C95.0312 40.2949 94.7982 40.3954 94.5835 40.5302C94.3687 40.665 94.186 40.8455 94.0375 41.0716C93.889 41.2978 93.809 41.572 93.7976 41.8941C93.7816 42.303 93.9118 42.6206 94.1905 42.8467C94.467 43.0729 94.8439 43.2785 95.3214 43.4613C96.3083 43.8268 97.0622 44.2655 97.5808 44.7772C98.0994 45.2889 98.3416 45.9812 98.3096 46.8516C98.2845 47.5073 98.1337 48.067 97.8595 48.5307C97.5831 48.9945 97.2313 49.3715 96.7995 49.6616C96.37 49.9517 95.888 50.1642 95.3557 50.299C94.8234 50.4338 94.2888 50.5 93.7496 50.5C93.3727 50.5 92.9957 50.4612 92.6165 50.3881C92.2372 50.3127 91.8785 50.2008 91.5404 50.05C91.2023 49.8992 90.8893 49.7096 90.6015 49.4766C90.3136 49.2458 90.0737 48.9671 89.8818 48.645L91.5381 47.5301C91.7392 47.9071 92.0522 48.2155 92.4794 48.4576C92.9066 48.6998 93.3841 48.8209 93.9118 48.8209C94.1814 48.8209 94.4487 48.7889 94.7137 48.7249C94.9787 48.661 95.2209 48.5559 95.4356 48.4097C95.6504 48.2635 95.8308 48.0761 95.9748 47.8454C96.1187 47.6146 96.1964 47.3268 96.2101 46.9818C96.2192 46.7237 96.1712 46.4952 96.0662 46.2964C95.9611 46.0977 95.8171 45.9218 95.6344 45.771C95.4516 45.6202 95.2391 45.4854 94.9947 45.3666C94.7525 45.2478 94.4921 45.1404 94.2157 45.0445C93.8753 44.9166 93.5554 44.7704 93.2561 44.6081C92.9546 44.4459 92.6919 44.2495 92.4634 44.0187C92.2349 43.788 92.059 43.5093 91.9379 43.1871C91.8146 42.865 91.762 42.4812 91.7803 42.0403C91.8009 41.4692 91.9425 40.9643 92.2007 40.5233C92.4588 40.0824 92.7947 39.71 93.2036 39.4085C93.6125 39.1069 94.0809 38.8785 94.6109 38.7231C95.1386 38.5678 95.6823 38.4878 96.2421 38.4878C96.5322 38.4878 96.8292 38.5198 97.1353 38.5837C97.4392 38.6477 97.7316 38.7437 98.0126 38.867C98.2936 38.9904 98.5563 39.1435 98.8031 39.3262C99.0498 39.509 99.2531 39.7237 99.4153 39.9728L97.9189 41.1356H97.9075Z" fill="#0047C7"/>
<path d="M101.569 50.2098L104.018 38.7778H111.219L110.847 40.521H105.583L104.955 43.4749H109.977L109.606 45.1541H104.601L103.897 48.4324H109.613L109.239 50.2075H101.569V50.2098Z" fill="#0047C7"/>
</g>
<defs>
<clipPath id="clip0_4896_27874">
<rect width="122.338" height="50" fill="white" transform="translate(0 0.5)"/>
</clipPath>
</defs>
</svg>
